<mxfile host="app.diagrams.net" modified="2023-06-07T00:47:56.263Z" agent="Mozilla/5.0 (Windows NT 10.0; Win64; x64) AppleWebKit/537.36 (KHTML, like Gecko) Chrome/114.0.0.0 Safari/537.36" etag="p0aODP536FUIVEUpY7eg" version="21.3.6" type="device">
  <diagram name="페이지-1" id="d-O9PUB33De8xk4tAhW_">
    <mxGraphModel dx="934" dy="525" grid="1" gridSize="10" guides="1" tooltips="1" connect="1" arrows="1" fold="1" page="1" pageScale="1" pageWidth="4681" pageHeight="3300" math="0" shadow="0">
      <root>
        <mxCell id="0" />
        <mxCell id="1" parent="0" />
        <mxCell id="HQDkkC0o3SwvrqAcYWN2-8" style="edgeStyle=orthogonalEdgeStyle;rounded=0;orthogonalLoop=1;jettySize=auto;html=1;entryX=0;entryY=0.5;entryDx=0;entryDy=0;" edge="1" parent="1" source="HQDkkC0o3SwvrqAcYWN2-1" target="HQDkkC0o3SwvrqAcYWN2-4">
          <mxGeometry relative="1" as="geometry" />
        </mxCell>
        <mxCell id="HQDkkC0o3SwvrqAcYWN2-1" value="관리자" style="shape=umlActor;verticalLabelPosition=bottom;verticalAlign=top;html=1;outlineConnect=0;" vertex="1" parent="1">
          <mxGeometry x="20" y="40" width="100" height="160" as="geometry" />
        </mxCell>
        <mxCell id="HQDkkC0o3SwvrqAcYWN2-9" style="edgeStyle=orthogonalEdgeStyle;rounded=0;orthogonalLoop=1;jettySize=auto;html=1;" edge="1" parent="1" source="HQDkkC0o3SwvrqAcYWN2-4" target="HQDkkC0o3SwvrqAcYWN2-5">
          <mxGeometry relative="1" as="geometry" />
        </mxCell>
        <mxCell id="HQDkkC0o3SwvrqAcYWN2-10" style="edgeStyle=orthogonalEdgeStyle;rounded=0;orthogonalLoop=1;jettySize=auto;html=1;entryX=0;entryY=0.5;entryDx=0;entryDy=0;" edge="1" parent="1" source="HQDkkC0o3SwvrqAcYWN2-4" target="HQDkkC0o3SwvrqAcYWN2-6">
          <mxGeometry relative="1" as="geometry" />
        </mxCell>
        <mxCell id="HQDkkC0o3SwvrqAcYWN2-11" style="edgeStyle=orthogonalEdgeStyle;rounded=0;orthogonalLoop=1;jettySize=auto;html=1;entryX=0;entryY=0.5;entryDx=0;entryDy=0;" edge="1" parent="1" source="HQDkkC0o3SwvrqAcYWN2-4" target="HQDkkC0o3SwvrqAcYWN2-7">
          <mxGeometry relative="1" as="geometry" />
        </mxCell>
        <mxCell id="HQDkkC0o3SwvrqAcYWN2-4" value="거래처리스트보기" style="ellipse;whiteSpace=wrap;html=1;" vertex="1" parent="1">
          <mxGeometry x="180" y="70" width="120" height="80" as="geometry" />
        </mxCell>
        <mxCell id="HQDkkC0o3SwvrqAcYWN2-13" style="edgeStyle=orthogonalEdgeStyle;rounded=0;orthogonalLoop=1;jettySize=auto;html=1;entryX=0;entryY=0.5;entryDx=0;entryDy=0;entryPerimeter=0;" edge="1" parent="1" source="HQDkkC0o3SwvrqAcYWN2-5" target="HQDkkC0o3SwvrqAcYWN2-12">
          <mxGeometry relative="1" as="geometry" />
        </mxCell>
        <mxCell id="HQDkkC0o3SwvrqAcYWN2-5" value="거래처추가" style="ellipse;whiteSpace=wrap;html=1;" vertex="1" parent="1">
          <mxGeometry x="400" y="20" width="120" height="80" as="geometry" />
        </mxCell>
        <mxCell id="HQDkkC0o3SwvrqAcYWN2-14" style="edgeStyle=orthogonalEdgeStyle;rounded=0;orthogonalLoop=1;jettySize=auto;html=1;" edge="1" parent="1" source="HQDkkC0o3SwvrqAcYWN2-6">
          <mxGeometry relative="1" as="geometry">
            <mxPoint x="659.9999999999998" y="160" as="targetPoint" />
          </mxGeometry>
        </mxCell>
        <mxCell id="HQDkkC0o3SwvrqAcYWN2-6" value="거래처 상세보기" style="ellipse;whiteSpace=wrap;html=1;" vertex="1" parent="1">
          <mxGeometry x="400" y="120" width="120" height="80" as="geometry" />
        </mxCell>
        <mxCell id="HQDkkC0o3SwvrqAcYWN2-15" style="edgeStyle=orthogonalEdgeStyle;rounded=0;orthogonalLoop=1;jettySize=auto;html=1;entryX=0;entryY=0.5;entryDx=0;entryDy=0;entryPerimeter=0;" edge="1" parent="1" source="HQDkkC0o3SwvrqAcYWN2-7" target="HQDkkC0o3SwvrqAcYWN2-12">
          <mxGeometry relative="1" as="geometry" />
        </mxCell>
        <mxCell id="HQDkkC0o3SwvrqAcYWN2-7" value="거래처 수정" style="ellipse;whiteSpace=wrap;html=1;" vertex="1" parent="1">
          <mxGeometry x="400" y="220" width="120" height="80" as="geometry" />
        </mxCell>
        <mxCell id="HQDkkC0o3SwvrqAcYWN2-12" value="거리처 정보 Table" style="shape=cylinder3;whiteSpace=wrap;html=1;boundedLbl=1;backgroundOutline=1;size=15;" vertex="1" parent="1">
          <mxGeometry x="650" y="90" width="180" height="140" as="geometry" />
        </mxCell>
      </root>
    </mxGraphModel>
  </diagram>
</mxfile>
